# xmcd
#
# Track frame offsets:
# 150
# 15601
# 33313
# 51914
# 69261
# 87136
# 102861
# 119779
# 139711
# 158633
# 174257
# 191277
# 210629
# 225231
# 249772
# 265882
#
# Disc length: 3824 seconds
#
#
# Revision: 0
# Processed by: cddbd v1.5.2PL0 Copyright (c) Steve Scherf et al.
# Submitted via: FreeRIP 2.96 
#
DISCID=c40eee10
DTITLE=Pablo Herrera - Serie Total
DYEAR=0080
DGENRE=Latin
TTITLE0=Alto al Fuego
TTITLE1=No te Detengas
TTITLE2=Mas Arriba
TTITLE3=Siento Frio Alrededor
TTITLE4=Eres Tan Distinta
TTITLE5=Magia
TTITLE6=Nadie Mas
TTITLE7=Subo a tu Corazón
TTITLE8=Dale Una Oportunidad
TTITLE9=Amor Mio
TTITLE10=Cada Nuevo Sol
TTITLE11=Sin Darme Cuenta
TTITLE12=Necesitamos Algo
TTITLE13=Esta Gran Ciudad
TTITLE14=Ale Esperame
TTITLE15=Esta es mi Tierra
EXTD=
EXTT0=
EXTT1=
EXTT2=
EXTT3=
EXTT4=
EXTT5=
EXTT6=
EXTT7=
EXTT8=
EXTT9=
EXTT10=
EXTT11=
EXTT12=
EXTT13=
EXTT14=
EXTT15=
PLAYORDER=
